<svg xmlns="http://www.w3.org/2000/svg" version="1.1" xmlns:xlink="http://www.w3.org/1999/xlink" xmlns:svgjs="http://svgjs.dev/svgjs" width="1089" height="1080"><svg width="1089" height="1080" viewBox="0 0 1089 1080" fill="none" xmlns="http://www.w3.org/2000/svg">
<rect width="1089" height="1080" rx="86" fill="#FF4D26"></rect>
<path d="M700.743 863.061V754.48C680.121 795.303 650.661 825.815 612.363 846.017C574.065 865.797 530.507 875.687 481.687 875.687C441.706 875.687 405.512 869.585 373.106 857.38C341.121 845.175 314.607 824.974 293.564 796.776C272.521 768.158 262 733.437 262 692.614C262 654.737 269.996 622.963 285.989 597.29C301.981 571.197 322.814 551.838 348.486 539.212C374.158 526.586 402.356 516.696 433.078 509.542C464.222 501.966 495.155 496.285 525.877 492.497C557.02 488.289 585.428 483.659 611.101 478.609C636.773 473.138 657.605 464.51 673.598 452.726C689.59 440.942 697.587 425.16 697.587 405.38C697.587 374.657 684.54 350.668 658.447 333.413C632.354 315.737 598.896 306.899 558.073 306.899C514.724 306.899 480.214 317.842 454.542 339.726C428.87 361.611 416.034 392.965 416.034 433.788H281.57C281.57 401.382 286.62 372.132 296.721 346.039C306.821 319.946 320.499 298.272 337.754 281.017C355.009 263.341 375.421 248.821 398.989 237.458C422.978 225.674 448.019 217.257 474.112 212.207C500.626 206.736 528.613 204 558.073 204C594.266 204 627.935 207.788 659.078 215.363C690.222 222.939 718.629 234.723 744.302 250.715C769.974 266.287 790.175 287.75 804.905 315.106C819.635 342.462 827 374.236 827 410.43V863.061H700.743ZM393.939 684.408C393.939 711.342 404.25 731.964 424.872 746.274C445.914 760.162 473.48 767.106 507.57 767.106C561.019 767.106 606.471 752.166 643.927 722.285C681.804 691.983 700.743 650.108 700.743 596.659V549.944C681.804 559.203 657.395 567.199 627.514 573.933C597.633 580.246 570.067 585.506 544.816 589.715C519.564 593.503 494.944 598.763 470.955 605.497C447.387 611.81 428.659 621.49 414.771 634.536C400.883 647.162 393.939 663.786 393.939 684.408Z" fill="white"></path>
</svg><style>@media (prefers-color-scheme: light) { :root { filter: none; } }
@media (prefers-color-scheme: dark) { :root { filter: none; } }
</style></svg>